PathFileType	4	(X/Y/Z)	/Users/itak/Documents/Research/Walk-IL/dataset/trc/00263_00009.trc
DataRate	CameraRate	NumFrames	NumMarkers	Units	OrigDataRate	OrigDataStartFrame	OrigNumFrames
100.000000	100.000000	4	53	mm	100.000000	190	380
Frame#	Time	RPSI			LPSI			L3			STRN			T10			C7			CLAV			RBAK			LBAK			LSHO			LUPA			LAEL			LAOL			LWTS			LWPS			LFRA			LIFD			LHPS			LHTS			RSHO			RUPA			RAEL			RAOL			RWTS			RWPS			RFRA			RIFD			RHTS			RHPS			RBHD			LFHD			RFHD			LBHD			LHIP			RHIP			RASI			LASI			LKNE			LTHI			LANK			LTIP			LTOE			LMT1			LMT5			LHEE			RKNE			RTHI			RTIP			RTOE			RMT1			RMT5			RHEE			RANK			
		X1	Y1	Z1	X2	Y2	Z2	X3	Y3	Z3	X4	Y4	Z4	X5	Y5	Z5	X6	Y6	Z6	X7	Y7	Z7	X8	Y8	Z8	X9	Y9	Z9	X10	Y10	Z10	X11	Y11	Z11	X12	Y12	Z12	X13	Y13	Z13	X14	Y14	Z14	X15	Y15	Z15	X16	Y16	Z16	X17	Y17	Z17	X18	Y18	Z18	X19	Y19	Z19	X20	Y20	Z20	X21	Y21	Z21	X22	Y22	Z22	X23	Y23	Z23	X24	Y24	Z24	X25	Y25	Z25	X26	Y26	Z26	X27	Y27	Z27	X28	Y28	Z28	X29	Y29	Z29	X30	Y30	Z30	X31	Y31	Z31	X32	Y32	Z32	X33	Y33	Z33	X34	Y34	Z34	X35	Y35	Z35	X36	Y36	Z36	X37	Y37	Z37	X38	Y38	Z38	X39	Y39	Z39	X40	Y40	Z40	X41	Y41	Z41	X42	Y42	Z42	X43	Y43	Z43	X44	Y44	Z44	X45	Y45	Z45	X46	Y46	Z46	X47	Y47	Z47	X48	Y48	Z48	X49	Y49	Z49	X50	Y50	Z50	X51	Y51	Z51	X52	Y52	Z52	X53	Y53	Z53	

191	1.9	-288.4911193847656	1009.662231445312	180.5531768798828	-397.9874877929688	1018.048583984375	133.2959747314453	-364.5163879394531	1100.689331054688	156.8019866943359	-270.9281005859375	1282.780395507812	-82.26577758789062	-360.2783508300781	1228.434692382812	157.4356994628906	-340.0326538085938	1488.201904296875	90.95652770996094	-277.6593017578125	1400.537475585938	-58.89375305175781	-304.5638122558594	1349.10302734375	190.0706481933594	-450.2305297851562	1451.458740234375	70.40267181396484	-468.7637939453125	1451.863037109375	-32.36721420288086	-555.0084228515625	1336.111206054688	-34.08072662353516	-578.1876220703125	1128.733032226562	-66.30219268798828	-563.6318969726562	1102.24462890625	16.56586837768555	-435.8175354003906	949.491943359375	-175.7585601806641	-511.9224243164062	920.2850341796875	-200.3505706787109	-559.9152221679688	1034.282836914062	-116.6876983642578	-395.8166198730469	769.8201293945312	-238.6469421386719	-479.3358764648438	844.6663818359375	-237.7060089111328	-414.9079895019531	867.3385009765625	-243.7159423828125	-163.1013793945312	1445.034545898438	104.3099365234375	-111.9936218261719	1379.2158203125	148.8641967773438	-82.30604553222656	1100.433471679688	188.6449584960938	-176.5267486572266	1093.255615234375	177.8113098144531	-56.65262222290039	886.4495239257812	46.33398818969727	-22.24239921569824	872.016357421875	122.1923599243164	-57.95500183105469	1032.245727539062	169.9845428466797	-58.15324020385742	694.5366821289062	31.77309799194336	-24.92130851745605	765.61181640625	17.35887336730957	-1.959806084632874	765.1463623046875	86.51660919189453	-259.7112426757812	1654.738403320312	43.77284622192383	-293.8281555175781	1658.077880859375	-181.1282653808594	-197.8303375244141	1657.520874023438	-152.5500183105469	-374.5427856445312	1652.9130859375	-37.91573333740234	-496.4423217773438	962.6111450195312	-10.64886856079102	-155.1472473144531	974.0980224609375	123.9244079589844	-156.9683837890625	1018.484497070312	22.14079666137695	-416.2245178222656	1002.614685058594	-88.66062927246094	-439.1582641601562	484.2985229492188	44.63653945922852	-467.1212768554688	625.4844360351562	10.49788188934326	-479.0554504394531	45.94596862792969	248.9820709228516	-467.9175720214844	274.1315307617188	144.3171691894531	-328.3548889160156	41.13385391235352	85.92121124267578	-324.4049682617188	38.91518020629883	167.8539123535156	-435.097412109375	39.16702270507812	128.5597229003906	-465.23388671875	61.51247787475586	326.842041015625	-100.5572128295898	524.5503540039062	-71.32572937011719	-101.3815612792969	772.2002563476562	27.92330741882324	-92.74175262451172	414.9452514648438	-122.2486114501953	-58.02780914306641	121.1201400756836	-365.6237487792969	-112.7490386962891	97.51162719726562	-327.5987243652344	-14.54356670379639	66.05130004882812	-270.3201904296875	-129.3988342285156	21.82145500183105	-126.5192642211914	-59.86282730102539	35.23003387451172	-173.89208984375	
192	1.91	-282.2552795410156	1008.643676757812	173.7294769287109	-392.0217590332031	1017.234191894531	127.2471466064453	-358.5092468261719	1099.521118164062	150.6730804443359	-266.8724365234375	1282.088256835938	-88.50762939453125	-354.4419860839844	1227.210815429688	151.7882843017578	-334.8369140625	1487.176879882812	85.59603118896484	-273.4559020996094	1399.76123046875	-64.82600402832031	-298.77490234375	1347.814453125	184.1818542480469	-445.1378784179688	1450.38720703125	65.74799346923828	-464.4502258300781	1450.884643554688	-36.8999137878418	-550.7964477539062	1335.051635742188	-37.91951370239258	-574.2866821289062	1127.595336914062	-69.44788360595703	-559.2279663085938	1101.486083984375	13.45169734954834	-433.795166015625	946.5341796875	-178.6163177490234	-510.2617492675781	917.86669921875	-202.6622161865234	-556.88232421875	1032.70654296875	-119.3989334106445	-395.88037109375	765.7909545898438	-239.6932373046875	-478.4791259765625	841.5114135742188	-239.3469543457031	-413.8193054199219	863.4445190429688	-245.733154296875	-157.7904510498047	1443.909790039062	97.77297210693359	-106.4757614135742	1377.96142578125	141.944091796875	-76.92709350585938	1099.166381835938	181.3814392089844	-171.2100524902344	1092.099609375	171.0799255371094	-52.55563735961914	885.0624389648438	39.07843399047852	-17.69045639038086	870.5864868164062	114.7837982177734	-52.85121536254883	1030.935424804688	162.6143951416016	-54.49911880493164	693.0741577148438	24.76953125	-21.27153968811035	764.0739135742188	10.06941318511963	2.125491619110107	763.62646484375	79.08154296875	-254.8509368896484	1653.8935546875	37.99427795410156	-290.3457946777344	1657.324096679688	-186.6874542236328	-194.1483306884766	1656.726196289062	-158.7264251708984	-370.1617431640625	1652.128662109375	-42.97832107543945	-491.7920837402344	961.9855346679688	-15.87769985198975	-149.5152740478516	972.80908203125	115.8922805786133	-152.1059265136719	1017.327514648438	14.19274520874023	-412.2608642578125	1001.874938964844	-94.70061492919922	-436.4751281738281	483.8182678222656	40.28233337402344	-463.8773498535156	625.03857421875	5.773961067199707	-479.0588684082031	47.19374465942383	248.5598602294922	-466.6210021972656	274.645263671875	141.777099609375	-328.3350219726562	41.028564453125	85.82905578613281	-324.5444641113281	39.15385818481445	167.6125030517578	-435.1144104003906	39.17115020751953	128.4147186279297	-465.2976989746094	63.56429290771484	326.3803405761719	-98.32064819335938	523.232666015625	-79.78456878662109	-97.46170043945312	770.8082885742188	19.0794849395752	-91.45979309082031	413.0449523925781	-130.3511047363281	-61.45677185058594	115.0142211914062	-371.982666015625	-115.6990966796875	92.27785491943359	-332.7522583007812	-16.75615119934082	62.05746459960938	-276.2315063476562	-129.4383697509766	22.18985939025879	-129.7163696289062	-60.38913345336914	33.74702453613281	-178.4102020263672	
193	1.92	-276.0317687988281	1007.808288574219	166.777587890625	-386.10205078125	1016.581176757812	121.0728454589844	-352.5032958984375	1098.411865234375	144.3610229492188	-262.7591857910156	1281.535278320312	-94.82563781738281	-348.5606689453125	1226.032470703125	146.0020751953125	-329.6151733398438	1486.246826171875	80.20027160644531	-269.2131042480469	1399.114135742188	-70.80216217041016	-292.9638061523438	1346.592163085938	178.2175140380859	-439.9918823242188	1449.382934570312	61.07437896728516	-460.1119079589844	1449.990112304688	-41.45114135742188	-546.5359497070312	1334.048095703125	-41.76319885253906	-570.2921142578125	1126.51416015625	-72.59126281738281	-554.6431884765625	1100.785888671875	10.3318977355957	-431.7815246582031	943.5869750976562	-181.5178527832031	-508.6443176269531	915.4873657226562	-204.9450378417969	-553.7880249023438	1031.182861328125	-122.0917892456055	-396.0658569335938	761.82275390625	-240.8123931884766	-477.7322082519531	838.4180908203125	-240.9942779541016	-412.8719787597656	859.6071166992188	-247.8000946044922	-152.4412078857422	1442.872314453125	91.20072174072266	-100.918342590332	1376.790771484375	134.9748840332031	-71.49839019775391	1097.980712890625	174.0204925537109	-165.8537445068359	1091.02587890625	164.2719879150391	-48.40863037109375	883.7235717773438	31.78767013549805	-13.07975482940674	869.2310180664062	107.3379974365234	-47.70103454589844	1029.706420898438	155.1600494384766	-50.785400390625	691.6600952148438	17.77692985534668	-17.57276916503906	762.5804443359375	2.771630525588989	6.246417045593262	762.1661376953125	71.62492370605469	-249.9737548828125	1653.18896484375	32.17411041259766	-286.8435974121094	1656.682861328125	-192.27783203125	-190.4488830566406	1656.05517578125	-164.9339599609375	-365.7521362304688	1651.470458984375	-48.07463455200195	-487.0908508300781	961.3653564453125	-21.28961181640625	-143.8170013427734	971.73974609375	107.743766784668	-147.2107849121094	1016.299560546875	6.169546604156494	-408.207275390625	1001.193664550781	-100.9103927612305	-433.6351928710938	483.3480834960938	35.7259521484375	-460.4656677246094	624.5880126953125	0.8893618583679199	-479.0904235839844	48.59835433959961	248.0657196044922	-465.189453125	275.2156372070312	139.0911102294922	-328.3053283691406	40.93083572387695	85.73175048828125	-324.7039489746094	39.44361114501953	167.3500366210938	-435.1083679199219	39.1842155456543	128.2288360595703	-465.3702392578125	65.8265380859375	325.8270874023438	-96.06166839599609	522.169189453125	-88.33110809326172	-93.63016510009766	769.496826171875	10.20200252532959	-90.17729187011719	411.31884765625	-138.4416351318359	-65.23061370849609	107.6453475952148	-377.8458251953125	-118.8931198120117	86.10472106933594	-337.1959228515625	-19.05866622924805	57.5869026184082	-281.4373168945312	-129.3697967529297	22.86737251281738	-131.9720916748047	-60.79855728149414	32.496337890625	-181.9577941894531	
194	1.93	-269.8617553710938	1007.204833984375	159.7056274414062	-380.2908630371094	1016.11474609375	114.7684631347656	-346.5363464355469	1097.392456054688	137.8619995117188	-258.5929565429688	1281.147705078125	-101.2196884155273	-342.66064453125	1224.934692382812	140.0702819824219	-324.3697204589844	1485.43994140625	74.76422882080078	-264.9304504394531	1398.623291015625	-76.82185363769531	-287.1385803222656	1345.46875	172.1784210205078	-434.7985534667969	1448.477172851562	56.37252426147461	-455.7485961914062	1449.211303710938	-46.02545547485352	-542.2216186523438	1333.134033203125	-45.60547256469727	-566.2067260742188	1125.5185546875	-75.73285675048828	-549.8673706054688	1100.176879882812	7.203568935394287	-429.7630615234375	940.695556640625	-184.4609222412109	-507.0670166015625	913.1801147460938	-207.1855773925781	-550.6307373046875	1029.742919921875	-124.7601623535156	-396.3433532714844	757.9649658203125	-242.0322570800781	-477.0886840820312	835.4285888671875	-242.6454010009766	-412.0689697265625	855.8740234375	-249.9282073974609	-147.0632934570312	1441.95361328125	84.59619140625	-95.33223724365234	1375.73876953125	127.958984375	-66.02886199951172	1096.904418945312	166.5541381835938	-160.4663696289062	1090.067749023438	157.3794555664062	-44.21015930175781	882.452880859375	24.46241569519043	-8.41024112701416	867.9794311523438	99.85234069824219	-42.50519943237305	1028.588134765625	147.6160736083984	-47.00023651123047	690.322998046875	10.80536937713623	-13.82563591003418	761.1566162109375	-4.52937126159668	10.41399955749512	760.79638671875	64.15332794189453	-245.0801696777344	1652.653442382812	26.30900382995605	-283.3204040527344	1656.181640625	-197.9041900634766	-186.7313079833984	1655.534790039062	-171.171630859375	-361.3185729980469	1650.969848632812	-53.20994186401367	-482.3638305664062	960.7578735351562	-26.89678382873535	-138.1023101806641	970.9546508789062	99.52346038818359	-142.3131103515625	1015.453979492188	-1.904699683189392	-404.0757751464844	1000.594360351562	-107.2832870483398	-430.6099243164062	482.8963928222656	30.94646453857422	-456.874267578125	624.1387329101562	-4.173590660095215	-479.1203308105469	50.18253707885742	247.5018463134766	-463.5906066894531	275.8539123535156	136.2479858398438	-328.2631225585938	40.84062576293945	85.62299346923828	-324.8624267578125	39.79089736938477	167.0681915283203	-435.064208984375	39.21848297119141	127.9978942871094	-465.4276733398438	68.33248901367188	325.1760864257812	-93.74064636230469	521.4414672851562	-96.97255706787109	-89.85373687744141	768.3466796875	1.311873435974121	-88.81719207763672	409.8807067871094	-146.5555267333984	-69.03358459472656	99.39545440673828	-383.2804260253906	-122.031135559082	79.36354827880859	-341.0757446289062	-21.19950866699219	52.86330032348633	-286.0498657226562	-129.1113891601562	23.7901496887207	-133.6329650878906	-60.98270416259766	31.51079940795898	-184.7904815673828	
